{"title":"Little Mix - Salute [Music Video] 720p [Sbyky]","uid":10090269,"size":52984059,"categoryP":"video","categoryS":"music_videos","magnet":"?xt=urn:btih:21806e6e48ab2958c01ff365b7b3240b2ac2dd6a&amp;dn=Little+Mix+-+Salute+%5BMusic+Video%5D+720p+%5BSbyky%5D&amp;tr=udp%3A%2F%2Ftracker.openbittorrent.com%3A80&amp;tr=udp%3A%2F%2Fopen.demonii.com%3A1337&amp;tr=udp%3A%2F%2Ftracker.coppersurfer.tk%3A6969&amp;tr=udp%3A%2F%2Fexodus.desync.com%3A6969","seeders":1,"leechers":0,"uploader":"Sbyky","files":1,"time":1399181626,"description":"\n\nGeneral\nComplete name                            : Little Mix - Salute [Music Video] 720p [Sbyky].mp4\nFormat                                   : MPEG-4\nFormat profile                           : Base Media\nCodec ID                                 : isom\nFile size                                : 50.5 MiB\nDuration                                 : 3mn 55s\nOverall bit rate mode                    : Variable\nOverall bit rate                         : 1 803 Kbps\nEncoded date                             : UTC 2014-04-27 14:49:43\nTagged date                              : UTC 2014-04-27 14:49:43\n\nVideo\nID                                       : 1\nFormat                                   : AVC\nFormat/Info                              : Advanced Video Codec\nFormat profile                           : &lt;a class=&quot;__cf_email__&quot; href=&quot;/cdn-cgi/l/email-protection&quot; data-cfemail=&quot;317c50585f717d021f00&quot;&gt;[email&amp;#160;protected]&lt;/a&gt;&lt;script cf-hash='f9e31' type=&quot;text/javascript&quot;&gt;\n/* &lt;![CDATA[ */!function(){try{var t=&quot;currentScript&quot;in document?document.currentScript:function(){for(var t=document.getElementsByTagName(&quot;script&quot;),e=t.length;e--;)if(t[e].getAttribute(&quot;cf-hash&quot;))return t[e]}();if(t&amp;&amp;t.previousSibling){var e,r,n,i,c=t.previousSibling,a=c.getAttribute(&quot;data-cfemail&quot;);if(a){for(e=&quot;&quot;,r=parseInt(a.substr(0,2),16),n=2;a.length-n;n+=2)i=parseInt(a.substr(n,2),16)^r,e+=String.fromCharCode(i);e=document.createTextNode(e),c.parentNode.replaceChild(e,c)}}}catch(u){}}();/* ]]&gt; */&lt;/script&gt;\nFormat settings, CABAC                   : Yes\nFormat settings, ReFrames                : 3 frames\nCodec ID                                 : avc1\nCodec ID/Info                            : Advanced Video Coding\nDuration                                 : 3mn 55s\nBit rate                                 : 1 673 Kbps\nWidth                                    : 1 280 pixels\nHeight                                   : 720 pixels\nDisplay aspect ratio                     : 16:9\nFrame rate mode                          : Constant\nFrame rate                               : 25.000 fps\nColor space                              : YUV\nChroma subsampling                       : 4:2:0\nBit depth                                : 8 bits\nScan type                                : Progressive\nBits/(Pixel*Frame)                       : 0.073\nStream size                              : 46.9 MiB (93%)\nEncoded date                             : UTC 2014-04-27 14:49:43\nTagged date                              : UTC 2014-04-27 14:49:43\n\nAudio\nID                                       : 2\nFormat                                   : AAC\nFormat/Info                              : Advanced Audio Codec\nFormat profile                           : LC\nCodec ID                                 : 40\nDuration                                 : 3mn 55s\nBit rate mode                            : Variable\nBit rate                                 : 126 Kbps\nChannel(s)                               : 2 channels\nChannel positions                        : Front: L R\nSampling rate                            : 44.1 KHz\nCompression mode                         : Lossy\nStream size                              : 3.52 MiB (7%)\nEncoded date                             : UTC 2014-04-27 14:49:39\nTagged date                              : UTC 2014-04-27 14:49:39\n\nShared By Sbyky\n","torrent":{"xt":"urn:btih:21806e6e48ab2958c01ff365b7b3240b2ac2dd6a","amp;dn":"Little+Mix+-+Salute+%5BMusic+Video%5D+720p+%5BSbyky%5D","amp;tr":["udp%3A%2F%2Ftracker.openbittorrent.com%3A80","udp%3A%2F%2Fopen.demonii.com%3A1337","udp%3A%2F%2Ftracker.coppersurfer.tk%3A6969","udp%3A%2F%2Fexodus.desync.com%3A6969"],"infoHash":"21806e6e48ab2958c01ff365b7b3240b2ac2dd6a","infoHashBuffer":{"type":"Buffer","data":[33,128,110,110,72,171,41,88,192,31,243,101,183,179,36,11,42,194,221,106]},"announce":[],"urlList":[]}}